<svg width="24" height="22" viewBox="0 0 24 22" fill="none" xmlns="http://www.w3.org/2000/svg">
<path fill-rule="evenodd" clip-rule="evenodd" d="M11.1058 21.7889L12.0003 20L12.8947 21.7889C12.3316 22.0704 11.6689 22.0704 11.1058 21.7889ZM10.78 4.84736C8.26979 1.97445 3.62162 2.23355 3.06298 6.5383C2.85757 8.12107 2.94214 9.66028 3.50039 11C6.00044 17 12.0003 20 12.0003 20C11.1058 21.7889 11.1047 21.7883 11.1047 21.7883L11.1033 21.7876L11.1003 21.7861L11.0925 21.7822L11.0705 21.771C11.053 21.762 11.0298 21.75 11.0012 21.7349C10.944 21.7048 10.8652 21.6626 10.7671 21.6082C10.5712 21.4995 10.2977 21.3417 9.96571 21.1348C9.30319 20.7218 8.39998 20.1079 7.4127 19.2908C5.45443 17.6701 3.07251 15.1731 1.65424 11.7693C0.916162 9.99794 0.846786 8.07496 1.07961 6.2809C1.30474 4.54614 2.06197 3.11472 3.26747 2.15793C4.45644 1.21427 5.91385 0.86562 7.31115 0.968828C9.01113 1.09439 10.7004 1.88441 12.0003 3.22163C13.3002 1.88437 14.9895 1.09434 16.6895 0.968768C18.0868 0.865555 19.5443 1.2142 20.7332 2.15786C21.9388 3.11465 22.696 4.54607 22.9212 6.28085C23.154 8.07491 23.0847 9.9979 22.3466 11.7693C20.9284 15.1731 18.5463 17.6702 16.588 19.2908C15.6007 20.1079 14.6974 20.7218 14.0349 21.1348C13.7029 21.3417 13.4294 21.4995 13.2334 21.6082C13.1353 21.6626 13.0565 21.7049 12.9993 21.7349C12.9707 21.75 12.9475 21.762 12.93 21.771L12.908 21.7822L12.9002 21.7861L12.8972 21.7877L12.8959 21.7883C12.8959 21.7883 12.8947 21.7889 12.0003 20C12.0003 20 18.0005 17 20.5005 11C21.0587 9.66027 21.1433 8.12105 20.9378 6.53827C20.3791 2.23345 15.7308 1.97438 13.2205 4.84737C13.168 4.90747 13.1164 4.96895 13.0658 5.03178C12.6138 5.59321 11.3867 5.59321 10.9347 5.03178C10.8841 4.96894 10.8326 4.90747 10.78 4.84736Z" fill="#F35C16"/>
</svg>
