<svg width="42" height="42" viewBox="0 0 42 42" fill="none" xmlns="http://www.w3.org/2000/svg">
<rect width="42" height="42" rx="8" fill="#F35C16"/>
<path d="M21.3812 6.00005C21.8218 5.99808 22.2507 6.05864 22.6084 6.34253C22.864 6.54537 23.0444 6.84234 23.0706 7.17446C23.1041 7.59814 22.8899 7.89534 22.6376 8.20138L22.6352 8.81603C24.9526 8.91575 27.2336 9.81822 29.0666 11.2458C29.1986 11.3505 29.3285 11.4579 29.4562 11.5681C29.584 11.6782 29.7095 11.7909 29.8327 11.9062C29.956 12.0215 30.0768 12.1394 30.1953 12.2597C30.3139 12.38 30.4299 12.5027 30.5435 12.6279C30.6571 12.753 30.7682 12.8804 30.8767 13.0101C30.9852 13.1398 31.091 13.2717 31.1942 13.4058C31.2975 13.5399 31.398 13.676 31.4957 13.8143C31.5935 13.9525 31.6885 14.0928 31.7806 14.235C31.8728 14.3771 31.9621 14.5212 32.0484 14.667C32.1348 14.8129 32.2183 14.9605 32.2988 15.1098C32.3793 15.2592 32.4567 15.4101 32.5312 15.5626C32.6056 15.7151 32.677 15.8691 32.7453 16.0246C32.8135 16.1801 32.8787 16.3369 32.9406 16.4951C33.0026 16.6533 33.0615 16.8127 33.1171 16.9733C33.1727 17.1339 33.2251 17.2956 33.2742 17.4584C33.3234 17.6212 33.3692 17.7849 33.4118 17.9496C33.6059 18.7028 33.706 19.4674 33.8066 20.238L21.5487 20.2395L9.1377 20.2418C9.49429 17.31 10.3609 14.859 12.3506 12.6481C12.4138 12.5769 12.4779 12.5065 12.5429 12.4369C12.6079 12.3673 12.6737 12.2985 12.7403 12.2305C12.807 12.1625 12.8744 12.0954 12.9427 12.0292C13.0109 11.9629 13.0799 11.8975 13.1498 11.833C13.2197 11.7685 13.2903 11.7048 13.3617 11.642C13.4331 11.5792 13.5053 11.5174 13.5782 11.4565C13.651 11.3955 13.7247 11.3355 13.799 11.2764C13.8734 11.2173 13.9485 11.1591 14.0242 11.1019C14.1 11.0447 14.1765 10.9884 14.2536 10.9331C14.3307 10.8778 14.4085 10.8235 14.487 10.7701C14.5654 10.7168 14.6445 10.6644 14.7243 10.613C14.804 10.5617 14.8844 10.5113 14.9653 10.462C15.0462 10.4126 15.1278 10.3643 15.2099 10.3171C15.292 10.2698 15.3747 10.2235 15.458 10.1782C15.5412 10.133 15.625 10.0889 15.7093 10.0457C15.7937 10.0026 15.8785 9.96058 15.9638 9.91961C16.0492 9.87858 16.135 9.83866 16.2214 9.79985C16.3076 9.76099 16.3944 9.72324 16.4816 9.6866C16.5689 9.64991 16.6565 9.61435 16.7446 9.57992C16.8327 9.54545 16.9212 9.51208 17.0101 9.47982C17.099 9.44762 17.1883 9.41652 17.278 9.38653C17.3676 9.35649 17.4576 9.32761 17.5479 9.29989C17.6383 9.27217 17.729 9.24556 17.8201 9.22005C17.911 9.1946 18.0023 9.17028 18.094 9.1471C18.1855 9.12396 18.2774 9.10196 18.3695 9.08109C18.4617 9.06023 18.554 9.04052 18.6467 9.02197C18.7392 9.00342 18.832 8.98604 18.9251 8.96981C19.0181 8.95358 19.1113 8.93853 19.2047 8.92467C19.2981 8.91076 19.3917 8.89806 19.4854 8.88657C19.5791 8.87503 19.6729 8.86467 19.7669 8.8555C19.8608 8.84632 19.9549 8.83833 20.049 8.83153C20.1432 8.82468 20.2374 8.81903 20.3317 8.81459L20.333 8.20425C20.0969 7.99249 19.915 7.72304 19.8757 7.3987C19.8398 7.10264 19.9372 6.80544 20.1207 6.57561C20.4465 6.16773 20.8889 6.04208 21.3812 6.00005Z" fill="#FEFEFE"/>
<path d="M7.45768 21.4545C9.1918 21.3892 10.9468 21.445 12.6827 21.4454L22.644 21.4456L31.3392 21.4451L34.1012 21.4513C34.4823 21.4495 34.8719 21.4129 35.252 21.4308C35.4383 21.4395 35.6352 21.4665 35.7819 21.5948C35.9367 21.7301 35.9905 21.9363 35.9981 22.1367C36.0105 22.4669 35.9665 22.8493 35.7323 23.098C35.5563 23.2849 35.3147 23.3636 35.0679 23.3948C34.7435 23.4358 34.4016 23.4093 34.0748 23.4076L32.5547 23.4077L26.8919 23.4064C26.5947 24.5186 26.1392 25.5704 25.4932 26.5207C25.1057 27.0906 24.647 27.5979 24.2273 28.142C23.3489 29.2809 22.8699 30.5632 22.7915 32.0041C22.7943 32.0952 22.7992 32.1861 22.806 32.2769C23.0157 34.9775 25.4685 33.4221 26.7082 34.5409C27.1302 34.9217 27.1956 35.4616 27.2219 36C23.402 35.9495 19.5718 35.986 15.7513 35.9996C15.7626 35.6079 15.8098 35.2027 16.0146 34.8614C16.6387 33.8214 18.03 34.1967 19.0031 33.9533C19.387 33.8573 19.7044 33.5998 19.9029 33.2545C20.6857 31.8917 19.712 29.5589 18.93 28.4052C18.4353 27.6754 17.8042 27.0583 17.3355 26.3051C17.1976 26.081 17.0683 25.8519 16.9478 25.6178C16.8271 25.3837 16.7155 25.1452 16.613 24.9023C16.5105 24.6595 16.4173 24.413 16.3333 24.1628C16.2494 23.9127 16.1751 23.6597 16.1104 23.4037L10.6734 23.4101C10.0204 23.4102 8.12357 23.4932 7.6433 23.3456C7.43819 23.2825 7.24097 23.114 7.1463 22.9185C7.00448 22.6255 6.94513 22.1524 7.06241 21.8416C7.14221 21.6302 7.26068 21.5454 7.45768 21.4545Z" fill="#FEFEFE"/>
</svg>
