<svg width="24" height="24" viewBox="0 0 24 24" fill="none" xmlns="http://www.w3.org/2000/svg">
<path fill-rule="evenodd" clip-rule="evenodd" d="M11.973 10.5742C12.3405 9.96937 12.5521 9.2594 12.5521 8.50001C12.5521 7.68218 12.3067 6.92168 11.8854 6.28814C11.1688 5.21034 9.94342 4.5 8.5521 4.5C6.34296 4.5 4.55209 6.29087 4.55209 8.50001C4.55209 10.7092 6.34296 12.5 8.5521 12.5C9.94342 12.5 11.1688 11.7897 11.8854 10.7119C11.9155 10.6666 11.9447 10.6207 11.973 10.5742ZM8.5521 10.8334C9.84077 10.8334 10.8854 9.78868 10.8854 8.50001C10.8854 7.21134 9.84077 6.16667 8.5521 6.16667C7.26343 6.16667 6.21876 7.21134 6.21876 8.50001C6.21876 9.78868 7.26343 10.8334 8.5521 10.8334Z" fill="#87836F"/>
<path fill-rule="evenodd" clip-rule="evenodd" d="M2.27143 16.7069C5.17578 11.9437 12.0922 11.9768 15.0803 16.6439C15.855 17.8539 15.0159 19.5 13.5334 19.5H3.83973C2.40609 19.5 1.52507 17.9309 2.27143 16.7069ZM13.6767 17.5426C11.3327 13.8816 5.93829 13.8946 3.69443 17.5745C3.62528 17.688 3.7069 17.8333 3.83973 17.8333H13.5334C13.5984 17.8333 13.6494 17.8036 13.6833 17.7402C13.7182 17.675 13.7169 17.6054 13.6767 17.5426Z" fill="#87836F"/>
<path d="M15.2188 12.5C14.438 12.5 13.7094 12.2763 13.0938 11.8895C13.4265 11.4443 13.6954 10.9486 13.8867 10.416C14.2644 10.6791 14.7236 10.8334 15.2188 10.8334C16.5075 10.8334 17.5521 9.78868 17.5521 8.50001C17.5521 7.21134 16.5075 6.16667 15.2188 6.16667C14.7236 6.16667 14.2644 6.32094 13.8867 6.58404C13.6954 6.05138 13.4265 5.55568 13.0938 5.11053C13.7094 4.72371 14.438 4.5 15.2188 4.5C17.4279 4.5 19.2188 6.29087 19.2188 8.50001C19.2188 10.7092 17.4279 12.5 15.2188 12.5Z" fill="#87836F"/>
<path d="M20.2001 19.5H16.5156C16.8196 18.9993 17.0006 18.4249 17.0338 17.8333H20.2001C20.2651 17.8333 20.3161 17.8036 20.35 17.7402C20.3849 17.675 20.3835 17.6054 20.3433 17.5426C19.2727 15.8704 17.5657 14.9647 15.8131 14.8248C15.3061 14.2105 14.7357 13.6798 14.1196 13.2335C16.95 12.7855 20.0112 13.9329 21.747 16.6439C22.5217 17.8539 21.6826 19.5 20.2001 19.5Z" fill="#87836F"/>
</svg>
