<svg width="18" height="18" viewBox="0 0 18 18" fill="none" xmlns="http://www.w3.org/2000/svg">
<path fill-rule="evenodd" clip-rule="evenodd" d="M15.4007 2.5993L3.36728 7.97593L7.47679 9.20878C8.10801 9.39815 8.60185 9.89199 8.79122 10.5232L10.0241 14.6327L15.4007 2.5993ZM9.06768 16.7732C9.06785 16.7728 9.06801 16.7725 9.06818 16.7721L9.06768 16.7732ZM7.12211 11.0239C7.10107 10.9538 7.0462 10.8989 6.97607 10.8779L0.621002 8.97137C-0.15255 8.7393 -0.221427 7.67077 0.51593 7.34132L16.7704 0.0786962C17.5004 -0.247477 18.2475 0.499628 17.9213 1.22963L10.6587 17.4841C10.3292 18.2214 9.2607 18.1526 9.02863 17.379L7.12211 11.0239Z" fill="#87836F"/>
</svg>
